<?xml version="1.0" encoding="utf-8"?>
<!-- Generator: Adobe Illustrator 16.0.0, SVG Export Plug-In . SVG Version: 6.00 Build 0)  -->
<!DOCTYPE svg PUBLIC "-//W3C//DTD SVG 1.1//EN" "http://www.w3.org/Graphics/SVG/1.1/DTD/svg11.dtd">
<svg version="1.1" id="Capa_1" xmlns="http://www.w3.org/2000/svg" xmlns:xlink="http://www.w3.org/1999/xlink" x="0px" y="0px"
	 width="390.642px" height="74.917px" viewBox="0 0 390.642 74.917" enable-background="new 0 0 390.642 74.917"
	 xml:space="preserve">
<g>
	<path fill-rule="evenodd" clip-rule="evenodd" fill="#99C33A" d="M262.893,17.069c-5.732,7.425-12.879,13.158-20.846,18.057
		c-10.225,6.287-21.543,9.979-32.606,14.271c-4.205,1.63-8.641,2.666-12.971,3.97c-9.207,2.774-18.369,5.707-27.634,8.267
		c-7.13,1.97-14.358,3.615-21.599,5.138c-7.636,1.606-15.313,3.051-23.018,4.279c-6.437,1.027-12.931,1.706-19.414,2.413
		c-4.108,0.448-8.243,0.659-12.362,1.004c-0.25,0.021-0.48,0.292-0.72,0.448c-11.696,0-23.392,0-35.087,0
		c-0.238-0.156-0.458-0.396-0.718-0.453c-4.433-0.973-8.977-1.594-13.276-2.975c-3.991-1.282-7.923-3.117-9.714-7.479
		c0-1.106,0-2.213,0-3.319c3.613-8.941,10.88-14.31,18.755-19.023c8.847-5.295,18.331-9.232,27.958-12.855
		c7.724-2.906,15.299-6.26,23.144-8.785c9.522-3.064,19.229-5.573,28.911-8.117c5.663-1.488,11.42-2.63,17.156-3.829
		c5.285-1.104,10.581-2.172,15.901-3.079c6.638-1.129,13.296-2.141,19.963-3.08c4.463-0.628,8.958-1.038,13.436-1.563
		c0.098-0.011,0.171-0.236,0.255-0.362c14.225,0,28.449,0,42.674,0c0.083,0.124,0.151,0.343,0.251,0.359
		c5.153,0.797,10.182,1.739,14.947,4.233c2.973,1.555,5.447,3.106,6.613,6.313C262.893,12.96,262.893,15.015,262.893,17.069z
		 M202.195,5.87c-0.012-0.138-0.023-0.276-0.034-0.415c-4.275,0.393-8.553,0.765-12.827,1.182
		c-4.725,0.461-9.478,0.766-14.162,1.499c-5.64,0.881-11.227,2.114-16.827,3.244c-8.174,1.649-16.387,3.143-24.496,5.066
		c-9.379,2.225-18.749,4.568-27.967,7.372c-8.696,2.646-17.366,5.543-25.724,9.091c-8.447,3.585-16.555,7.997-24.704,12.253
		c-5.394,2.816-10.432,6.109-13.139,12.015c-1.715,3.74-0.787,6.756,2.879,8.748c6.846,3.72,14.428,4.164,21.879,4.619
		c8.028,0.491,16.109,0.154,24.167,0.086c2.575-0.021,5.158-0.246,7.719-0.537c4.781-0.541,9.547-1.215,14.323-1.805
		c4.243-0.522,8.527-0.805,12.728-1.557c5.816-1.041,11.563-2.47,17.357-3.646c6.507-1.321,13.071-2.386,19.543-3.854
		c7.681-1.743,15.415-3.414,22.906-5.805c12.047-3.844,24.013-7.993,35.825-12.505c9.281-3.545,18.048-8.264,25.896-14.464
		c2.271-1.794,4.49-3.742,6.354-5.941c2.929-3.456,1.583-8.917-2.427-10.531c-4.863-1.957-9.6-4.26-15.051-4.373
		c-6.34-0.131-12.675-0.805-19.011-0.797C212.333,4.822,207.265,5.494,202.195,5.87z"/>
	<g>
		<path fill-rule="evenodd" clip-rule="evenodd" fill="#36A9E1" d="M196.605,17.497c2.708,1.323,5.316,2.747,8.668,1.457
			c0.544-0.209,2.758,1.395,2.65,1.861c-0.934,4.044-2.214,8.022-3.433,12.01c-0.063,0.203-0.494,0.313-1.329,0.804
			c-0.514-1.444-1.12-2.683-1.387-3.982c-0.866-4.202-4.202-7.547-8.187-8.041c-5.645-0.7-10.598,1.391-12.369,5.465
			c-0.345,0.796-0.055,2.521,0.563,2.854c3.863,2.07,7.837,3.997,11.899,5.722c4.817,2.045,9.959,3.88,10.798,9.394
			c0.368,2.413,0.092,5.379-1.171,7.441c-3.932,6.418-10.018,10.317-18.395,10.116c-6.56-0.158-13.158-0.432-19.626-1.331
			c-1.736-0.242-4.431-3.056-4.3-4.508c0.312-3.431,2.06-6.755,3.226-10.123c0.399,0.024,0.799,0.049,1.199,0.073
			c1.399,2.187,3.147,4.253,4.128,6.586c2.627,6.25,12.153,8.154,18.763,2.592c4.71-3.963,4.155-7.71-1.653-10.323
			c-3.575-1.608-7.163-3.204-10.821-4.647c-7.491-2.953-6.897-12.097-3.061-16.116c3.545-3.713,8.356-5.25,12.913-7.303
			C189.324,17.497,192.965,17.497,196.605,17.497z"/>
		<path fill-rule="evenodd" clip-rule="evenodd" fill="#36A9E1" d="M390.642,62.065c-6.102-0.001-12.205,0.078-18.302-0.085
			c-1.066-0.027-2.102-1.074-3.151-1.648c0.812-0.784,1.555-2.155,2.451-2.245c3.413-0.341,4.639-2.534,5.438-4.951
			c1.056-3.189,1.785-6.473,2.579-9.731c0.954-3.909-1.79-6.215-6.343-5.719c-6.879,0.749-9.618,5.219-11.51,10.396
			c-0.751,2.057-1.103,4.284-1.245,6.454c-0.06,0.899,0.729,1.995,1.449,2.746c1.021,1.066,2.337,1.9,3.543,2.845
			c-5.323,3.142-18.817,2.657-22.368-0.865c0.742-0.402,1.447-1.109,2.167-1.121c4.21-0.064,5.458-2.649,6.222-5.752
			c0.799-3.254,1.942-6.468,2.373-9.76c0.508-3.864-2.818-5.874-7.055-4.918c-6.427,1.45-8.438,6.177-10.16,11.077
			c-0.883,2.51-1.287,5.163-1.913,7.771c1.832,1.659,5.603,1.782,4.893,5.499c-6.331,0-12.637,0.055-18.938-0.058
			c-0.971-0.018-1.923-0.815-2.885-1.253c-0.025-0.314-0.049-0.63-0.074-0.945c1.398-0.624,2.996-1.036,4.147-1.926
			c1.444-1.115,3.059-2.451,3.649-3.996c1.408-3.679,2.414-7.507,3.266-11.333c0.439-1.977,0.544-4.19-2.71-4.673
			c-0.742-0.11-1.378-0.816-2.548-1.556c4.977-2.612,9.609-4.18,14.064-2.209c4.18,1.849,7.84,0.053,11.711,0.1
			c4.023,0.048,8.053-1.306,11.859,1.375c1.064,0.751,3.493,0.522,4.994,0.01c4.507-1.544,9.026-2.482,13.881-2.284
			c8.064,0.33,10.717,4.258,8.375,12.721c-0.768,2.775-1.525,5.551-2.318,8.318c-1.021,3.557,2.443,3.603,4.458,4.786
			C390.642,60.111,390.642,61.088,390.642,62.065z"/>
		<path fill-rule="evenodd" clip-rule="evenodd" fill="#E30613" d="M165.123,17.497c0.215,7.908-3.125,15.195-4.814,22.769
			c-1.247,5.591-2.861,11.113-4.177,16.152c2.698,1.683,5.036,3.138,7.976,4.97c-7.514,1.665-22.93,0.794-24.997-1.542
			c1.413-0.666,2.704-1.319,4.036-1.894c2.751-1.185,3.899-3.451,4.575-5.898c2.405-8.693,4.718-17.408,7.016-26.124
			c0.437-1.652,0.019-2.939-1.933-3.795c-1.278-0.56-2.244-1.714-3.848-3.002c3.147-0.659,5.481-1.147,7.814-1.635
			C159.554,17.497,162.339,17.497,165.123,17.497z"/>
		<path fill-rule="evenodd" clip-rule="evenodd" fill="#36A9E1" d="M320.221,52.359c0.912,2.927-0.174,4.29-2.255,5.666
			c-8.593,5.679-17.56,6.169-27.101,2.304c-0.944-0.382-2.447-0.232-3.43,0.185c-4.943,2.101-9.974,2.822-15.326,1.573
			c-3.915-0.914-5.631-3.054-4.752-6.521c1.41-5.556,2.941-11.085,4.393-16.52c-0.245-0.297-0.344-0.48-0.504-0.597
			c-1.09-0.81-2.191-1.606-3.29-2.406c1.153-0.863,2.269-1.774,3.47-2.578c2.023-1.354,4.119-2.617,6.152-3.962
			c1.674-1.106,3.298-2.276,5.757-3.981c0,2.352,0.021,3.838-0.005,5.323c-0.054,3.086,0.563,3.527,3.922,2.762
			c3.426-0.781,5.414,0.449,5.6,3.736c-3.69,0-7.373,0-11.117,0c-1.462,5.909-2.721,11.599-4.318,17.209
			c-0.781,2.746,0.939,3.299,3.022,3.348c1.959,0.045,3.933-0.461,5.944-0.732c-0.85-4.733-1.924-9.477,1.115-13.838
			c5.146-7.378,16.95-12.099,28.067-9.155c4.862,1.287,8.163,5.162,7.661,9.14c-0.191,1.521-0.544,2.322-2.389,2.364
			c-5.408,0.125-10.815,0.362-16.224,0.542c-0.962,0.032-1.929-0.046-2.888,0.016c-2.006,0.129-4.738-0.814-5.41,1.802
			c-0.67,2.602,0.21,5.107,2.508,7.003c3.838,3.166,12.565,3.4,17.088-0.083C317.145,54.009,318.612,53.317,320.221,52.359z
			 M314.084,41.497c-1.268-2.713-3.218-4.651-5.899-4.489c-3.101,0.187-6.095,1.492-7.911,4.489
			C304.932,41.497,309.272,41.497,314.084,41.497z"/>
		<path fill-rule="evenodd" clip-rule="evenodd" fill="#E30613" d="M104.422,33.925c2.226,0,4.598-0.207,6.891,0.092
			c1.084,0.141,2.018,1.252,3.02,1.925c-0.909,0.684-1.711,1.687-2.751,1.969c-1.281,0.348-2.769,0.205-4.146,0.079
			c-2.372-0.217-4.054,0.679-4.662,2.669c-1.4,4.58-2.896,9.169-3.728,13.848c-0.594,3.333,0.139,3.727,3.869,3.417
			c1.61-0.133,3.173-0.727,4.526-1.055c-0.217-2.935-0.867-5.547-0.514-8.039c1.258-8.872,8.577-12.403,16.736-14.844
			c5.198-1.556,10.469-0.669,15.56,0.73c3.474,0.956,6.322,5.916,5.265,9.019c-0.899,2.637-3.735,2.319-5.855,2.411
			c-5.342,0.233-10.703,0.072-16.056,0.08c-4.577,0.006-4.612,0.261-4.436,4.283c0.156,3.57,2.044,5.459,5.62,6.291
			c5.159,1.2,9.993,1.039,14.243-2.434c0.886-0.723,2.286-0.92,3.89-1.526c0.027,2.595-0.458,3.886-2.523,5.229
			c-8.789,5.718-17.832,6.045-27.435,2.104c-0.839-0.344-2.257-0.07-3.156,0.356c-5.245,2.491-10.718,2.555-16.303,1.46
			c-2.789-0.547-4.45-3.246-3.747-6.199c1.265-5.316,2.693-10.6,4.06-15.896c0.096-0.372,0.413-0.764,0.342-1.094
			c-1.491-7.015,5.775-8.208,9.438-11.77c0.377-0.366,1.339-0.233,2.254-0.364C104.688,29.109,104.562,31.396,104.422,33.925z
			 M135.356,41.4c0.091-3.314-2.548-4.186-5.07-4.445c-3.721-0.382-6.438,1.516-8.7,4.445C126.391,41.4,130.879,41.4,135.356,41.4z"
			/>
		<path fill-rule="evenodd" clip-rule="evenodd" fill="#3EC0F0" d="M50.758,72.621c-0.81-0.887-1.618-1.774-2.457-2.694
			c1.003-2.988,3.116-4.223,6.619-3.8c1.757,0.213,3.701,0.219,5.368-0.254c3.79-1.075,5.663-4.615,4.436-8.23
			c-1.981-5.829-4.143-11.608-6.239-17.404c-0.161-0.442-0.282-1.088-0.637-1.251c-3.67-1.681-3.688-5.001-4.483-8.004
			c-1.972-7.443-5.531-8.799-12.697-9.317c-10.163-0.735-17.343,4.229-22.529,11.559c-2.214,3.132-3.734,6.915-4.531,10.589
			c-1.625,7.5,3.062,10.755,9.112,12.995c9.477,3.509,17.591,0.736,25.24-4.322c0.812-0.537,1.214-1.561,1.934-2.247
			c1.082-1.032,2.275-1.965,3.863-3.317c0.882,6.085-2.912,9.33-6.956,11.49c-11.298,6.033-23.222,6.238-35.513,2.103
			C5.374,58.526,2.388,54.537,0,49.75c0-2.736,0-5.474,0-8.21c0.168-0.103,0.462-0.188,0.483-0.311
			c1.854-10.658,10.32-15.985,19.932-20.135c3.873-1.671,8.221-2.424,12.353-3.597c4.284,0,8.566,0,12.85,0
			c4.178,0.931,8.152,3.018,12.74,1.221c2.208-0.865,3.188,0.317,2.622,2.861c-0.811,3.645-1.675,7.28-2.487,10.924
			c-0.079,0.358,0.05,0.756,0.081,1.113c5.021,1.306,10.604-1.322,15.526,1.946c-0.525,0.563-0.806,0.978-1.198,1.267
			c-4.126,3.032-4.13,3.026-2.543,7.68c0.83,2.431,1.658,4.863,2.659,7.797c3.861-4.504,7.525-8.776,11.138-12.989
			c-1.286-1.644-2.487-3.179-4.109-5.251c4.796,0,8.493,0,12.337,0c0.217,2.429,0.005,4.055-2.221,6.08
			C84.733,45.084,80.137,50.78,75.17,56.144c-4.456,4.81-8.923,9.612-13.477,14.345c-0.854,0.887-2.14,1.43-3.226,2.132
			C55.898,72.621,53.327,72.621,50.758,72.621z"/>
		<path fill-rule="evenodd" clip-rule="evenodd" fill="#36A9E1" d="M201.103,72.621c-0.466-1.427-1.613-3.017-1.258-4.246
			c0.758-2.62,3.53-2.388,5.834-2.163c7.394,0.727,11.247-2.726,9.43-9.285c-1.582-5.707-3.947-11.247-6.234-16.768
			c-0.558-1.346-2.278-2.258-3.254-3.505c-0.558-0.713-0.693-1.7-1.081-2.728c5.9,0,11.462-0.05,17.021,0.051
			c0.878,0.016,1.739,0.707,2.608,1.086c-0.602,0.872-0.983,2.145-1.848,2.541c-2.502,1.145-3.02,2.53-2,4.909
			c1.314,3.065,2.227,6.274,3.464,9.859c3.946-4.701,7.575-9.029,11.287-13.452c-1.291-1.256-2.569-2.498-3.847-3.74
			c0.049-0.313,0.099-0.627,0.148-0.939c11.369-1.431,22.876,1.541,35.132-0.946c-0.734,3.88-1.284,6.795-1.835,9.711
			c-0.303,0.07-0.604,0.14-0.906,0.21c-0.762-0.796-1.676-1.509-2.258-2.403c-3.063-4.711-7.543-4.942-11.875-0.127
			c2.232,1.08,4.357,2.164,6.535,3.146c1.775,0.801,3.805,1.24,5.391,2.265c4.654,3.011,4.274,10.425-0.447,13.57
			c-5.329,3.551-11.172,3.367-17.221,2.313c-2.15-0.374-4.347-0.534-7.35-0.891c0.959-3.479,1.894-6.861,2.826-10.247
			c0.361-0.006,0.721-0.014,1.082-0.021c0.994,1.513,2.017,3.011,2.977,4.541c1.701,2.715,6.459,4.488,9.415,3.099
			c1.428-0.669,2.843-2.083,3.306-3.434c0.219-0.638-1.667-2.127-2.871-2.858c-1.648-1-3.531-1.689-5.353-2.433
			c-4.618-1.886-7.208-3.822-6.358-10.619c-2.985,3.106-6.082,6.128-8.932,9.333c-5.568,6.258-10.857,12.725-16.562,18.876
			c-1.963,2.117-4.813,3.55-7.258,5.295C206.244,72.621,203.673,72.621,201.103,72.621z"/>
	</g>
</g>
</svg>
